<?xml version="1.0" standalone="no"?>
<!DOCTYPE svg PUBLIC "-//W3C//DTD SVG 20010904//EN"
 "http://www.w3.org/TR/2001/REC-SVG-20010904/DTD/svg10.dtd">
<svg version="1.0" xmlns="http://www.w3.org/2000/svg"
 width="1024.000000pt" height="1024.000000pt" viewBox="0 0 1024.000000 1024.000000"
 preserveAspectRatio="xMidYMid meet">
<metadata>
Created by potrace 1.14, written by Peter Selinger 2001-2017
</metadata>
<g transform="translate(0.000000,1024.000000) scale(0.100000,-0.100000)"
fill="#000000" stroke="none">
<path d="M0 5120 l0 -5120 5120 0 5120 0 0 5120 0 5120 -5120 0 -5120 0 0
-5120z m6762 2651 c400 -69 743 -294 978 -641 119 -177 203 -389 240 -607 20
-117 21 -150 17 -1414 l-3 -1294 -27 -110 c-52 -215 -133 -396 -250 -562 -81
-114 -239 -272 -352 -351 -155 -110 -360 -199 -538 -236 -169 -35 -278 -37
-1802 -33 -1330 3 -1509 6 -1578 20 -323 67 -566 197 -785 419 -207 210 -342
465 -402 757 -37 183 -41 355 -38 1551 4 1251 3 1209 64 1425 144 507 531 900
1025 1041 183 53 144 52 1796 53 1483 1 1545 0 1655 -18z"/>
<path d="M4935 6965 c-111 -18 -244 -56 -336 -95 -295 -125 -568 -390 -711
-690 -24 -49 -45 -89 -48 -89 -3 0 -27 32 -55 70 -94 135 -215 229 -344 269
-80 25 -132 25 -214 0 -129 -40 -210 -147 -209 -278 1 -228 263 -345 431 -191
18 16 35 28 38 26 2 -2 49 -206 103 -453 188 -842 222 -988 241 -1026 34 -67
112 -108 206 -108 l41 0 -41 -96 -42 -95 -50 5 c-68 7 -175 -17 -239 -53 -72
-42 -141 -118 -179 -199 -30 -62 -32 -75 -32 -172 0 -97 2 -110 32 -173 43
-90 119 -169 202 -210 63 -30 72 -32 181 -32 111 0 118 1 183 33 156 77 259
251 244 414 l-5 58 813 0 812 0 5 -92 c9 -153 66 -262 177 -340 89 -62 150
-80 261 -76 82 3 104 7 160 34 120 58 194 143 232 267 52 171 -17 361 -170
468 -71 50 -150 73 -243 72 l-76 0 -52 111 -52 112 25 45 c24 44 56 165 203
779 l75 315 -6 115 c-32 618 -476 1137 -1078 1260 -136 28 -359 35 -483 15z
m402 -411 c228 -47 441 -177 572 -350 73 -98 151 -255 151 -307 0 -57 -30 -87
-85 -87 -49 0 -68 16 -89 77 -136 386 -544 597 -953 492 -137 -35 -310 -144
-394 -248 l-32 -41 -94 0 c-51 0 -93 3 -93 8 1 19 94 141 156 203 139 142 284
215 519 263 54 11 272 5 342 -10z m-67 -541 c137 -37 258 -167 294 -315 l6
-28 -93 0 -94 0 -12 39 c-29 98 -153 171 -266 156 -85 -10 -186 -90 -210 -166
-4 -10 -9 -19 -13 -19 -4 0 -24 46 -46 101 l-38 101 33 35 c45 46 160 101 234
112 69 10 127 6 205 -16z m671 -1727 c32 -68 59 -127 59 -130 0 -10 -1688 -7
-1694 3 -5 8 52 150 89 221 l16 30 735 0 735 0 60 -124z m-1958 -320 c18 -7
47 -29 64 -49 104 -119 34 -302 -121 -315 -111 -9 -196 73 -196 188 0 138 130
228 253 176z m2488 -6 c122 -63 133 -251 18 -327 -60 -39 -148 -40 -206 -1
-97 64 -111 224 -27 300 58 52 146 63 215 28z"/>
</g>
</svg>
